<mxfile host="65bd71144e">
    <diagram name="Page-1" id="LbLjgvdDcqQ1I_yBgH5B">
        <mxGraphModel dx="683" dy="410" grid="1" gridSize="10" guides="1" tooltips="1" connect="1" arrows="1" fold="1" page="1" pageScale="1" pageWidth="827" pageHeight="1169" math="0" shadow="0">
            <root>
                <mxCell id="0"/>
                <mxCell id="1" parent="0"/>
                <mxCell id="g-5_mK_-a3eJAs1n7ar0-1" value="Actor" style="shape=umlActor;verticalLabelPosition=bottom;verticalAlign=top;html=1;outlineConnect=0;" parent="1" vertex="1">
                    <mxGeometry x="60" y="300" width="30" height="60" as="geometry"/>
                </mxCell>
                <mxCell id="g-5_mK_-a3eJAs1n7ar0-2" value="Boundary Object" style="shape=umlBoundary;whiteSpace=wrap;html=1;" parent="1" vertex="1">
                    <mxGeometry x="210" y="100" width="100" height="80" as="geometry"/>
                </mxCell>
                <mxCell id="g-5_mK_-a3eJAs1n7ar0-3" value="Boundary Object" style="shape=umlBoundary;whiteSpace=wrap;html=1;" parent="1" vertex="1">
                    <mxGeometry x="210" y="240" width="100" height="80" as="geometry"/>
                </mxCell>
                <mxCell id="g-5_mK_-a3eJAs1n7ar0-4" value="Boundary Object" style="shape=umlBoundary;whiteSpace=wrap;html=1;" parent="1" vertex="1">
                    <mxGeometry x="210" y="370" width="100" height="80" as="geometry"/>
                </mxCell>
                <mxCell id="2" value="Boundary Object" style="shape=umlBoundary;whiteSpace=wrap;html=1;" vertex="1" parent="1">
                    <mxGeometry x="210" y="505" width="100" height="80" as="geometry"/>
                </mxCell>
            </root>
        </mxGraphModel>
    </diagram>
</mxfile>